<svg width="39" height="40" viewBox="0 0 39 40" fill="none" xmlns="http://www.w3.org/2000/svg">
<g clip-path="url(#clip0_13_462)">
<path d="M39 0.5H0V39.5H39V0.5Z" fill="url(#paint0_linear_13_462)"/>
<path d="M17.2453 19.2078C17.2453 19.2078 19.4391 19.025 19.4391 16.4656C19.4391 13.9063 17.6719 12.6875 15.4172 12.6875H7.92188V27.0687H15.4172C15.4172 27.0687 19.9875 27.1906 19.9875 22.8031C19.9266 22.8031 20.1703 19.2078 17.2453 19.2078ZM11.2125 15.2469H15.4172C15.4172 15.2469 16.4531 15.2469 16.4531 16.7703C16.4531 18.2938 15.8438 18.4766 15.1734 18.4766H11.2734V15.2469H11.2125ZM15.1734 24.4484H11.2125V20.6094H15.4172C15.4172 20.6094 16.9406 20.6094 16.9406 22.5594C16.8797 24.2656 15.7828 24.4484 15.1734 24.4484Z" fill="#F1F2F2"/>
<path d="M28.8844 13.5405H22.9734V15.3077H28.8844V13.5405Z" fill="#F1F2F2"/>
<path d="M26.0203 16.3438C20.475 16.3438 20.475 21.8891 20.475 21.8891C20.475 21.8891 20.1094 27.3734 26.0203 27.3734C26.0203 27.3734 30.9562 27.6781 30.9562 23.5344H28.3969C28.3969 23.5344 28.4578 25.0578 26.0812 25.0578C26.0812 25.0578 23.5219 25.2406 23.5219 22.5594H30.9562C31.0172 22.5594 31.8703 16.3438 26.0203 16.3438ZM23.5828 20.6094C23.5828 20.6094 23.8875 18.4156 26.0812 18.4156C28.275 18.4156 28.275 20.6094 28.275 20.6094H23.5828Z" fill="#F1F2F2"/>
</g>
<defs>
<linearGradient id="paint0_linear_13_462" x1="1.48328" y1="37.7277" x2="39.4677" y2="0.352653" gradientUnits="userSpaceOnUse">
<stop offset="0.2887" stop-color="#3F56FF"/>
<stop offset="1" stop-color="#3FA1FF"/>
</linearGradient>
<clipPath id="clip0_13_462">
<rect y="0.5" width="39" height="39" rx="19.5" fill="white"/>
</clipPath>
</defs>
</svg>
