<svg width="40" height="40" viewBox="0 0 40 40" fill="none" xmlns="http://www.w3.org/2000/svg">
<rect width="40" height="40" rx="20" fill="white" fill-opacity="0.3"/>
<path fill-rule="evenodd" clip-rule="evenodd" d="M13.968 12H26.032C26.4706 12 26.8491 12 27.1624 12.0214C27.4922 12.0439 27.8221 12.0934 28.1481 12.2284C28.8831 12.5328 29.4672 13.1169 29.7716 13.852C29.9066 14.1779 29.9561 14.5078 29.9787 14.8376C30 15.1509 30 15.5294 30 15.968V24.032C30 24.4706 30 24.8491 29.9787 25.1624C29.9561 25.4922 29.9066 25.8221 29.7716 26.1481C29.4672 26.8831 28.8831 27.4672 28.1481 27.7716C27.8221 27.9066 27.4922 27.9561 27.1624 27.9787C26.8491 28 26.4706 28 26.032 28H13.968C13.5294 28 13.1509 28 12.8376 27.9787C12.5078 27.9561 12.1779 27.9066 11.852 27.7716C11.1169 27.4672 10.5328 26.8831 10.2284 26.1481C10.0934 25.8221 10.0439 25.4922 10.0214 25.1624C9.99998 24.8491 9.99999 24.4706 10 24.032V15.968C9.99999 15.5294 9.99998 15.1509 10.0214 14.8376C10.0439 14.5078 10.0934 14.1779 10.2284 13.852C10.5328 13.1169 11.1169 12.5328 11.852 12.2284C12.1779 12.0934 12.5078 12.0439 12.8376 12.0214C13.1509 12 13.5294 12 13.968 12ZM12.3177 14.2775C12.6814 13.8619 13.3132 13.8198 13.7288 14.1835L19.3418 19.0948C19.7188 19.4247 20.2818 19.4247 20.6588 19.0948L26.2717 14.1835C26.6874 13.8198 27.3191 13.8619 27.6828 14.2775C28.0465 14.6932 28.0044 15.3249 27.5888 15.6886L21.9758 20.6C20.8447 21.5896 19.1558 21.5896 18.0248 20.6L12.4118 15.6886C11.9962 15.3249 11.9541 14.6932 12.3177 14.2775Z" fill="white"/>
</svg>
