<svg width="158" height="170" viewBox="0 0 158 170" fill="none" xmlns="http://www.w3.org/2000/svg">
<g filter="url(#filter0_dd_2_577)">
<circle cx="112.328" cy="136.938" r="7.72525" transform="rotate(-21.4784 112.328 136.938)" fill="url(#paint0_linear_2_577)" shape-rendering="crispEdges"/>
</g>
<g filter="url(#filter1_dd_2_577)">
<circle cx="125.223" cy="105.368" r="5.71522" transform="rotate(-21.4784 125.223 105.368)" fill="url(#paint1_linear_2_577)" shape-rendering="crispEdges"/>
</g>
<circle cx="75.2893" cy="75.7038" r="58" transform="rotate(-21.4784 75.2893 75.7038)" fill="url(#paint2_radial_2_577)" fill-opacity="0.6"/>
<g filter="url(#filter2_d_2_577)">
<ellipse cx="91.155" cy="83.4428" rx="34.7507" ry="21.7704" transform="rotate(-21.4784 91.155 83.4428)" fill="url(#paint3_linear_2_577)" fill-opacity="0.5" shape-rendering="crispEdges"/>
<path d="M123.356 70.7725C125.532 76.3028 123.932 82.7382 119.54 88.6833C115.149 94.6265 107.981 100.06 99.0725 103.565C90.1643 107.07 81.2157 107.978 73.9524 106.621C66.6867 105.263 61.1301 101.643 58.954 96.113C56.778 90.5827 58.3784 84.1474 62.7704 78.2022C67.1611 72.259 74.3293 66.8259 83.2375 63.3208C92.1457 59.8156 101.094 58.9071 108.358 60.2648C115.623 61.6229 121.18 65.2422 123.356 70.7725Z" stroke="url(#paint4_linear_2_577)" stroke-opacity="0.6" stroke-width="0.293484" shape-rendering="crispEdges"/>
</g>
<circle cx="83.7217" cy="64.5528" r="44.0868" transform="rotate(-21.4784 83.7217 64.5528)" fill="url(#paint5_radial_2_577)"/>
<ellipse cx="86.3905" cy="71.3357" rx="43.1023" ry="25.2157" transform="rotate(-21.4784 86.3905 71.3357)" fill="url(#paint6_linear_2_577)" fill-opacity="0.5"/>
<path d="M126.363 55.6076C128.886 62.0186 126.736 69.5959 121.165 76.6775C115.596 83.7558 106.625 90.3135 95.5695 94.6638C84.5136 99.014 73.4793 100.328 64.5802 98.9422C55.677 97.556 48.9406 93.475 46.418 87.0639C43.8954 80.6529 46.0446 73.0756 51.6159 65.994C57.1847 58.9156 66.1556 52.3579 77.2115 48.0077C88.2674 43.6575 99.3017 42.3437 108.201 43.7293C117.104 45.1155 123.84 49.1965 126.363 55.6076Z" stroke="url(#paint7_linear_2_577)" stroke-opacity="0.6" stroke-width="0.293484"/>
<circle cx="83.7215" cy="64.5526" r="32.656" transform="rotate(-21.4784 83.7215 64.5526)" fill="url(#paint8_radial_2_577)"/>
<circle cx="83.7215" cy="64.5526" r="32.656" transform="rotate(-21.4784 83.7215 64.5526)" fill="url(#paint9_radial_2_577)"/>
<g filter="url(#filter3_d_2_577)">
<ellipse cx="80.6587" cy="56.7681" rx="42.6639" ry="24.6325" transform="rotate(-21.4784 80.6587 56.7681)" fill="url(#paint10_linear_2_577)" fill-opacity="0.5" shape-rendering="crispEdges"/>
<path d="M120.223 41.2004C122.686 47.4607 120.531 54.884 114.994 61.839C109.461 68.7904 100.568 75.2474 89.6241 79.5535C78.6806 83.8595 67.7719 85.1939 58.985 83.8772C50.1937 82.5599 43.5574 78.596 41.0941 72.3357C38.6309 66.0755 40.7866 58.6521 46.323 51.6972C51.8566 44.7458 60.7496 38.2887 71.6932 33.9827C82.6367 29.6767 93.5454 28.3423 102.332 29.6589C111.124 30.9763 117.76 34.9401 120.223 41.2004Z" stroke="url(#paint11_linear_2_577)" stroke-opacity="0.6" stroke-width="0.293484" shape-rendering="crispEdges"/>
</g>
<g filter="url(#filter4_d_2_577)">
<ellipse cx="76.0011" cy="44.9316" rx="33.1059" ry="21.3988" transform="rotate(-21.4784 76.0011 44.9316)" fill="url(#paint12_linear_2_577)" fill-opacity="0.5" shape-rendering="crispEdges"/>
<path d="M106.671 32.8636C108.811 38.3005 107.345 44.5829 103.206 50.3552C99.0676 56.1261 92.2673 61.3693 83.7825 64.7079C75.2978 68.0464 66.7479 68.8432 59.7866 67.4396C52.8236 66.0357 47.47 62.4366 45.3307 56.9997C43.1915 51.5628 44.6569 45.2804 48.7963 39.5081C52.9346 33.7371 59.7349 28.494 68.2196 25.1554C76.7044 21.8169 85.2543 21.0201 92.2156 22.4237C99.1785 23.8276 104.532 27.4267 106.671 32.8636Z" stroke="url(#paint13_linear_2_577)" stroke-opacity="0.6" stroke-width="0.293484" shape-rendering="crispEdges"/>
</g>
<ellipse cx="73.2803" cy="38.015" rx="20.606" ry="13.9663" transform="rotate(-21.4784 73.2803 38.015)" fill="url(#paint14_linear_2_577)" fill-opacity="0.5"/>
<path d="M92.3188 30.5239C93.7078 34.054 92.8605 38.0962 90.334 41.787C87.8081 45.477 83.6118 48.8008 78.3404 50.8749C73.069 52.9491 67.7329 53.3761 63.3697 52.3968C59.0056 51.4173 55.6309 49.0363 54.2419 45.5062C52.8529 41.9761 53.7002 37.9339 56.2267 34.2431C58.7526 30.5531 62.9489 27.2293 68.2203 25.1552C73.4917 23.081 78.8278 22.654 83.191 23.6333C87.5551 24.6128 90.9298 26.9938 92.3188 30.5239Z" stroke="url(#paint15_linear_2_577)" stroke-opacity="0.6" stroke-width="0.293484"/>
<ellipse cx="71.5342" cy="33.5784" rx="11.9299" ry="8.2085" transform="rotate(-21.4784 71.5342 33.5784)" fill="url(#paint16_linear_2_577)" fill-opacity="0.5"/>
<path d="M82.4991 29.2641C83.3063 31.3155 82.8346 33.6631 81.3877 35.8089C79.9413 37.954 77.5275 39.8836 74.4861 41.0804C71.4446 42.2771 68.3632 42.5097 65.8428 41.9254C63.3216 41.341 61.3766 39.9443 60.5694 37.8928C59.7622 35.8414 60.2339 33.4938 61.6808 31.348C63.1272 29.2029 65.5409 27.2733 68.5824 26.0765C71.6239 24.8798 74.7053 24.6472 77.2257 25.2315C79.7469 25.8159 81.6919 27.2126 82.4991 29.2641Z" stroke="url(#paint17_linear_2_577)" stroke-opacity="0.6" stroke-width="0.293484"/>
<circle cx="83.7217" cy="64.5525" r="44.0868" transform="rotate(-21.4784 83.7217 64.5525)" fill="url(#paint18_radial_2_577)" fill-opacity="0.3"/>
<defs>
<filter id="filter0_dd_2_577" x="94.329" y="118.352" width="35.9986" height="35.9985" filterUnits="userSpaceOnUse" color-interpolation-filters="sRGB">
<feFlood flood-opacity="0" result="BackgroundImageFix"/>
<feColorMatrix in="SourceAlpha" type="matrix" values="0 0 0 0 0 0 0 0 0 0 0 0 0 0 0 0 0 0 127 0" result="hardAlpha"/>
<feOffset dy="-0.586968"/>
<feGaussianBlur stdDeviation="5.13597"/>
<feComposite in2="hardAlpha" operator="out"/>
<feColorMatrix type="matrix" values="0 0 0 0 0.371081 0 0 0 0 0.235903 0 0 0 0 0.658333 0 0 0 1 0"/>
<feBlend mode="normal" in2="BackgroundImageFix" result="effect1_dropShadow_2_577"/>
<feColorMatrix in="SourceAlpha" type="matrix" values="0 0 0 0 0 0 0 0 0 0 0 0 0 0 0 0 0 0 127 0" result="hardAlpha"/>
<feOffset dy="-0.586968"/>
<feGaussianBlur stdDeviation="2.93484"/>
<feComposite in2="hardAlpha" operator="out"/>
<feColorMatrix type="matrix" values="0 0 0 0 0.48825 0 0 0 0 0.372778 0 0 0 0 0.733333 0 0 0 1 0"/>
<feBlend mode="normal" in2="effect1_dropShadow_2_577" result="effect2_dropShadow_2_577"/>
<feBlend mode="normal" in="SourceGraphic" in2="effect2_dropShadow_2_577" result="shape"/>
</filter>
<filter id="filter1_dd_2_577" x="109.235" y="88.792" width="31.9774" height="31.9772" filterUnits="userSpaceOnUse" color-interpolation-filters="sRGB">
<feFlood flood-opacity="0" result="BackgroundImageFix"/>
<feColorMatrix in="SourceAlpha" type="matrix" values="0 0 0 0 0 0 0 0 0 0 0 0 0 0 0 0 0 0 127 0" result="hardAlpha"/>
<feOffset dy="-0.586968"/>
<feGaussianBlur stdDeviation="5.13597"/>
<feComposite in2="hardAlpha" operator="out"/>
<feColorMatrix type="matrix" values="0 0 0 0 0.371081 0 0 0 0 0.235903 0 0 0 0 0.658333 0 0 0 1 0"/>
<feBlend mode="normal" in2="BackgroundImageFix" result="effect1_dropShadow_2_577"/>
<feColorMatrix in="SourceAlpha" type="matrix" values="0 0 0 0 0 0 0 0 0 0 0 0 0 0 0 0 0 0 127 0" result="hardAlpha"/>
<feOffset dy="-0.586968"/>
<feGaussianBlur stdDeviation="2.93484"/>
<feComposite in2="hardAlpha" operator="out"/>
<feColorMatrix type="matrix" values="0 0 0 0 0.48825 0 0 0 0 0.372778 0 0 0 0 0.733333 0 0 0 1 0"/>
<feBlend mode="normal" in2="effect1_dropShadow_2_577" result="effect2_dropShadow_2_577"/>
<feBlend mode="normal" in="SourceGraphic" in2="effect2_dropShadow_2_577" result="shape"/>
</filter>
<filter id="filter2_d_2_577" x="54.9069" y="56.8752" width="72.4962" height="53.722" filterUnits="userSpaceOnUse" color-interpolation-filters="sRGB">
<feFlood flood-opacity="0" result="BackgroundImageFix"/>
<feColorMatrix in="SourceAlpha" type="matrix" values="0 0 0 0 0 0 0 0 0 0 0 0 0 0 0 0 0 0 127 0" result="hardAlpha"/>
<feOffset dy="0.293484"/>
<feGaussianBlur stdDeviation="1.46742"/>
<feComposite in2="hardAlpha" operator="out"/>
<feColorMatrix type="matrix" values="0 0 0 0 0.440043 0 0 0 0 0.20092 0 0 0 0 0.679167 0 0 0 0.3 0"/>
<feBlend mode="normal" in2="BackgroundImageFix" result="effect1_dropShadow_2_577"/>
<feBlend mode="normal" in="SourceGraphic" in2="effect1_dropShadow_2_577" result="shape"/>
</filter>
<filter id="filter3_d_2_577" x="38.4697" y="27.8527" width="84.378" height="58.4178" filterUnits="userSpaceOnUse" color-interpolation-filters="sRGB">
<feFlood flood-opacity="0" result="BackgroundImageFix"/>
<feColorMatrix in="SourceAlpha" type="matrix" values="0 0 0 0 0 0 0 0 0 0 0 0 0 0 0 0 0 0 127 0" result="hardAlpha"/>
<feOffset dy="0.293484"/>
<feGaussianBlur stdDeviation="0.733711"/>
<feComposite in2="hardAlpha" operator="out"/>
<feColorMatrix type="matrix" values="0 0 0 0 0.369333 0 0 0 0 0.0916667 0 0 0 0 0.5 0 0 0 0.15 0"/>
<feBlend mode="normal" in2="BackgroundImageFix" result="effect1_dropShadow_2_577"/>
<feBlend mode="normal" in="SourceGraphic" in2="effect1_dropShadow_2_577" result="shape"/>
</filter>
<filter id="filter4_d_2_577" x="42.2982" y="19.7086" width="67.9928" height="51.0331" filterUnits="userSpaceOnUse" color-interpolation-filters="sRGB">
<feFlood flood-opacity="0" result="BackgroundImageFix"/>
<feColorMatrix in="SourceAlpha" type="matrix" values="0 0 0 0 0 0 0 0 0 0 0 0 0 0 0 0 0 0 127 0" result="hardAlpha"/>
<feOffset dx="0.293484" dy="0.293484"/>
<feGaussianBlur stdDeviation="1.10057"/>
<feComposite in2="hardAlpha" operator="out"/>
<feColorMatrix type="matrix" values="0 0 0 0 0.440043 0 0 0 0 0.20092 0 0 0 0 0.679167 0 0 0 0.2 0"/>
<feBlend mode="normal" in2="BackgroundImageFix" result="effect1_dropShadow_2_577"/>
<feBlend mode="normal" in="SourceGraphic" in2="effect1_dropShadow_2_577" result="shape"/>
</filter>
<linearGradient id="paint0_linear_2_577" x1="112.328" y1="125.854" x2="112.328" y2="152.948" gradientUnits="userSpaceOnUse">
<stop stop-color="white"/>
<stop offset="0.223958" stop-color="#6BE4FF"/>
<stop offset="0.623188" stop-color="#371B73" stop-opacity="0.6"/>
<stop offset="1" stop-color="#0A1153" stop-opacity="0.4"/>
</linearGradient>
<linearGradient id="paint1_linear_2_577" x1="125.223" y1="97.1675" x2="125.223" y2="117.212" gradientUnits="userSpaceOnUse">
<stop stop-color="white"/>
<stop offset="0.223958" stop-color="#6BE4FF"/>
<stop offset="0.623188" stop-color="#371B73" stop-opacity="0.6"/>
<stop offset="1" stop-color="#0A1153" stop-opacity="0.4"/>
</linearGradient>
<radialGradient id="paint2_radial_2_577" cx="0" cy="0" r="1" gradientUnits="userSpaceOnUse" gradientTransform="translate(75.2893 75.7038) rotate(90) scale(58)">
<stop stop-color="#FF65C1"/>
<stop offset="1" stop-color="#FF65C1" stop-opacity="0"/>
</radialGradient>
<linearGradient id="paint3_linear_2_577" x1="91.155" y1="61.6724" x2="91.155" y2="105.213" gradientUnits="userSpaceOnUse">
<stop stop-color="#13154D"/>
<stop offset="1" stop-color="#8E92EE" stop-opacity="0"/>
</linearGradient>
<linearGradient id="paint4_linear_2_577" x1="108.221" y1="79.6773" x2="118.093" y2="99.3948" gradientUnits="userSpaceOnUse">
<stop stop-color="white" stop-opacity="0"/>
<stop offset="1" stop-color="white"/>
</linearGradient>
<radialGradient id="paint5_radial_2_577" cx="0" cy="0" r="1" gradientUnits="userSpaceOnUse" gradientTransform="translate(39.6349 80.5904) rotate(-19.6638) scale(93.634)">
<stop offset="0.249306" stop-color="white"/>
<stop offset="0.48315" stop-color="#FF8FED" stop-opacity="0.5"/>
<stop offset="0.627037" stop-color="#220C7A" stop-opacity="0.5"/>
</radialGradient>
<linearGradient id="paint6_linear_2_577" x1="46.8056" y1="76.6948" x2="128.5" y2="67.4738" gradientUnits="userSpaceOnUse">
<stop stop-color="white"/>
<stop offset="1" stop-color="#12178E" stop-opacity="0.4"/>
</linearGradient>
<linearGradient id="paint7_linear_2_577" x1="105.904" y1="102.239" x2="82.3766" y2="78.0613" gradientUnits="userSpaceOnUse">
<stop offset="0.0011346" stop-color="white"/>
<stop offset="1" stop-color="white" stop-opacity="0"/>
</linearGradient>
<radialGradient id="paint8_radial_2_577" cx="0" cy="0" r="1" gradientUnits="userSpaceOnUse" gradientTransform="translate(59.0222 81.1352) rotate(-14.8494) scale(64.7056)">
<stop offset="0.239373" stop-color="white"/>
<stop offset="0.410099" stop-color="#FFCEF1"/>
<stop offset="0.67492" stop-color="#B6B9FF"/>
<stop offset="0.861176" stop-color="#FFA8E7"/>
<stop offset="1" stop-color="white"/>
</radialGradient>
<radialGradient id="paint9_radial_2_577" cx="0" cy="0" r="1" gradientUnits="userSpaceOnUse" gradientTransform="translate(114.659 89.794) rotate(-121.724) scale(37.206)">
<stop stop-color="#3F52FF"/>
<stop offset="1" stop-color="#3F52FF" stop-opacity="0"/>
</radialGradient>
<linearGradient id="paint10_linear_2_577" x1="38.9135" y1="55.0703" x2="123.322" y2="57.6927" gradientUnits="userSpaceOnUse">
<stop stop-color="white"/>
<stop offset="1" stop-color="#5653FF" stop-opacity="0.2"/>
</linearGradient>
<linearGradient id="paint11_linear_2_577" x1="90.8177" y1="97.9309" x2="73.6373" y2="61.512" gradientUnits="userSpaceOnUse">
<stop stop-color="white"/>
<stop offset="1" stop-color="white" stop-opacity="0"/>
</linearGradient>
<linearGradient id="paint12_linear_2_577" x1="76.0011" y1="23.5329" x2="76.0011" y2="66.3304" gradientUnits="userSpaceOnUse">
<stop stop-color="#13154D" stop-opacity="0.5"/>
<stop offset="1" stop-color="#8E92EE" stop-opacity="0"/>
</linearGradient>
<linearGradient id="paint13_linear_2_577" x1="92.6229" y1="71.372" x2="79.381" y2="25.7257" gradientUnits="userSpaceOnUse">
<stop stop-color="white"/>
<stop offset="1" stop-color="white" stop-opacity="0"/>
</linearGradient>
<linearGradient id="paint14_linear_2_577" x1="73.2803" y1="24.0487" x2="73.2803" y2="51.9814" gradientUnits="userSpaceOnUse">
<stop stop-color="#13154D"/>
<stop offset="1" stop-color="#8E92EE" stop-opacity="0"/>
</linearGradient>
<linearGradient id="paint15_linear_2_577" x1="93.5907" y1="67.1163" x2="68.1666" y2="25.0186" gradientUnits="userSpaceOnUse">
<stop stop-color="white"/>
<stop offset="1" stop-color="white" stop-opacity="0"/>
</linearGradient>
<linearGradient id="paint16_linear_2_577" x1="71.5342" y1="25.3699" x2="71.5342" y2="41.7869" gradientUnits="userSpaceOnUse">
<stop stop-color="#13154D"/>
<stop offset="1" stop-color="#8E92EE" stop-opacity="0"/>
</linearGradient>
<linearGradient id="paint17_linear_2_577" x1="86.8717" y1="54.9649" x2="68.5287" y2="25.94" gradientUnits="userSpaceOnUse">
<stop stop-color="white"/>
<stop offset="1" stop-color="white" stop-opacity="0"/>
</linearGradient>
<radialGradient id="paint18_radial_2_577" cx="0" cy="0" r="1" gradientUnits="userSpaceOnUse" gradientTransform="translate(39.6348 80.5901) rotate(-19.6638) scale(93.634)">
<stop offset="0.249306" stop-color="white"/>
<stop offset="0.48315" stop-color="#FF8FED" stop-opacity="0.5"/>
<stop offset="0.627037" stop-color="#220C7A" stop-opacity="0"/>
</radialGradient>
</defs>
</svg>
