<svg width="64" height="46" viewBox="0 0 64 46" fill="none" xmlns="http://www.w3.org/2000/svg">
<path d="M34.6076 23.0396C34.6076 29.4513 29.4453 34.6489 23.0777 34.6489C16.7101 34.6489 11.5475 29.4513 11.5475 23.0396C11.5475 16.628 16.7097 11.4299 23.0777 11.4299C29.4457 11.4299 34.6076 16.628 34.6076 23.0396Z" fill="black"/>
<path d="M47.2562 23.0395C47.2562 29.0747 44.6751 33.9691 41.4911 33.9691C38.3071 33.9691 35.7259 29.0747 35.7259 23.0395C35.7259 17.0043 38.3067 12.1099 41.4907 12.1099C44.6747 12.1099 47.2558 17.0027 47.2558 23.0395" fill="black"/>
<path d="M52.4298 23.0395C52.4298 28.4456 51.5222 32.8307 50.4022 32.8307C49.2822 32.8307 48.375 28.4467 48.375 23.0395C48.375 17.6323 49.2826 13.2483 50.4022 13.2483C51.5218 13.2483 52.4298 17.6319 52.4298 23.0395Z" fill="black"/>
</svg>
