<svg width="40" height="40" viewBox="0 0 40 40" fill="none" xmlns="http://www.w3.org/2000/svg">
<rect width="40" height="40" rx="20" fill="white" fill-opacity="0.3"/>
<path fill-rule="evenodd" clip-rule="evenodd" d="M10.1409 12.4021C10.3402 10.9296 11.6396 10 12.99 10H15.5585C16.8498 10 17.9962 10.8263 18.4045 12.0513L19.454 15.1996C19.905 16.5528 19.1086 18.0036 17.7248 18.3496C17.3865 18.4342 17.2697 18.8555 17.5164 19.1022L20.8978 22.4836C21.1445 22.7303 21.5658 22.6135 21.6504 22.2752C21.9964 20.8914 23.4472 20.095 24.8004 20.546L27.9487 21.5955C29.1737 22.0038 30 23.1502 30 24.4415V27.01C30 28.3604 29.0704 29.6598 27.5979 29.8591C26.9114 29.9521 26.211 30 25.5 30C16.9396 30 10 23.0604 10 14.5C10 13.789 10.0479 13.0886 10.1409 12.4021Z" fill="white"/>
</svg>
